Coordinates
version=1
nRows=24
nColumns=24
inDegrees=yes

Units are S.I. units (second, meters, Newtons, ...)
Angles are in degrees.

endheader
time	pelvis_tilt	pelvis_list	pelvis_rotation	pelvis_tx	pelvis_ty	pelvis_tz	hip_flexion_r	hip_adduction_r	hip_rotation_r	knee_angle_r	ankle_angle_r	subtalar_angle_r	mtp_angle_r	hip_flexion_l	hip_adduction_l	hip_rotation_l	knee_angle_l	ankle_angle_l	subtalar_angle_l	mtp_angle_l	lumbar_extension	lumbar_bending	lumbar_rotation
      5.34000000	     -1.51675392	      8.44499737	      4.67087932	     -2.51127283	      0.87147332	      0.23691083	     22.35467309	    -10.27616926	      3.13583207	     -5.17513073	      6.99526975	      5.24250828	      0.00000000	    -12.82228912	      9.33083903	     20.74007835	    -10.91889835	     14.88889681	    -10.34652887	      0.00000000	    -25.49065493	     -8.60642014	    -19.06319292
      5.35000000	     -1.29761545	      8.31141487	      4.45127708	     -2.49872159	      0.87115660	      0.23906744	     22.16133768	     -9.90137487	      3.38409985	     -6.28417825	      6.10909459	      4.70622232	      0.00000000	    -13.07047262	      9.17984690	     20.04771572	    -12.44864487	     14.58723081	     -9.37254767	      0.00000000	    -25.31871379	     -8.47853851	    -18.54101648
      5.36000000	     -1.07688038	      8.14430388	      4.12747832	     -2.48610786	      0.87101946	      0.24137626	     22.01590640	     -9.42967426	      3.77034788	     -7.61821528	      5.08720053	      3.87540489	      0.00000000	    -13.10141443	      9.06225551	     19.02995949	    -14.34071407	     14.08560269	     -8.27444657	      0.00000000	    -25.14260550	     -8.33666882	    -17.91278591
      5.37000000	     -0.83327500	      7.94977577	      3.75198673	     -2.47349641	      0.87115286	      0.24371686	     21.84583064	     -8.89962714	      4.28691431	     -9.05842192	      4.10807593	      2.92720537	      0.00000000	    -12.88235153	      8.96903176	     17.60716986	    -16.66950936	     13.28244920	     -7.09112894	      0.00000000	    -25.01193283	     -8.14616728	    -17.28080112
      5.38000000	     -0.64300959	      7.76541775	      3.37263627	     -2.46108252	      0.87147687	      0.24615994	     21.72641549	     -8.34294985	      5.01533863	    -10.54598777	      3.17734798	      1.65340196	      0.00000000	    -12.31625460	      8.90830042	     16.04847059	    -19.44003094	     12.16199526	     -5.80233531	      0.00000000	    -24.89432002	     -7.99370294	    -16.60550295
      5.39000000	     -0.36151234	      7.50661332	      2.95738657	     -2.44878151	      0.87214644	      0.24862123	     21.49435798	     -7.69180952	      5.63322031	    -12.05520465	      2.65718397	      0.65814148	      0.00000000	    -11.54009118	      8.76876422	     14.20454701	    -22.64120764	     10.65362496	     -4.58790134	      0.00000000	    -24.91587544	     -7.73614868	    -15.84878238
      5.40000000	     -0.12904037	      7.17873927	      2.60782640	     -2.43671170	      0.87297756	      0.25101360	     21.22080213	     -6.97669494	      6.34474257	    -13.45208532	      2.42904014	     -0.35301820	      0.00000000	    -10.39696862	      8.52853366	     12.29150470	    -26.26518114	      8.72232060	     -3.57645094	      0.00000000	    -24.94791561	     -7.37725800	    -15.16938739
      5.41000000	      0.08442118	      6.75767996	      2.34196266	     -2.42487937	      0.87394867	      0.25329111	     20.85922390	     -6.19204384	      6.96101789	    -14.70391777	      2.57735991	     -1.18140028	      0.00000000	     -8.94799542	      8.14175508	     10.42106577	    -30.24863329	      6.39118464	     -2.83947468	      0.00000000	    -25.01356428	     -6.88370743	    -14.52602501
      5.42000000	      0.30635865	      6.18024395	      2.23966967	     -2.41326016	      0.87507414	      0.25523029	     20.33046464	     -5.32523637	      7.27132254	    -15.73101089	      3.04039091	     -1.74186400	      0.00000000	     -7.27131073	      7.55064489	      8.81270426	    -34.50632118	      3.67640381	     -2.56864654	      0.00000000	    -25.13364164	     -6.13281818	    -13.90813562
      5.43000000	      0.32549296	      5.62990025	      2.22360324	     -2.40203419	      0.87590932	      0.25721746	     19.91446026	     -4.49367115	      7.64571345	    -16.55674762	      3.71901018	     -2.36264046	      0.00000000	     -5.14515636	      6.92723705	      7.32357335	    -38.98131803	      0.68599015	     -2.48907264	      0.00000000	    -25.07299859	     -5.48169612	    -13.39705831
      5.44000000	      0.38339257	      4.92340532	      2.38936706	     -2.39099586	      0.87683680	      0.25878368	     19.28219200	     -3.60772885	      7.59984536	    -17.08796706	      4.57395696	     -2.63373316	      0.00000000	     -2.92453207	      6.12512320	      6.21409824	    -43.52133784	     -2.48605234	     -2.79233647	      0.00000000	    -25.07464738	     -4.56996563	    -12.93776214
      5.45000000	      0.43591431	      4.14586579	      2.66913901	     -2.38019656	      0.87770569	      0.26012721	     18.52307878	     -2.70082254	      7.36330969	    -17.35384313	      5.47617874	     -2.84320381	      0.00000000	     -0.59924983	      5.25452171	      5.40909436	    -48.02690858	     -5.69638603	     -3.37665874	      0.00000000	    -25.08975399	     -3.56677514	    -12.48846055
      5.46000000	      0.43826923	      3.33820105	      3.05266257	     -2.36959803	      0.87846645	      0.26122882	     17.69349584	     -1.81601848	      6.98028482	    -17.35304774	      6.36996665	     -2.93419704	      0.00000000	      1.84016227	      4.38751067	      4.89019844	    -52.40724173	     -8.78771552	     -4.13078195	      0.00000000	    -25.04485371	     -2.52930805	    -12.06043266
      5.47000000	      0.42764573	      2.54256313	      3.49389032	     -2.35909208	      0.87921120	      0.26212292	     16.77989901	     -0.97786331	      6.47390845	    -17.13103423	      7.21886498	     -2.92664150	      0.00000000	      4.29369745	      3.59596984	      4.62457121	    -56.54643961	    -11.62067996	     -4.92187044	      0.00000000	    -24.95426260	     -1.51083612	    -11.63648501
      5.48000000	      0.49640521	      1.80781923	      3.90585856	     -2.34872233	      0.88009874	      0.26297922	     15.73240474	     -0.19435372	      5.89217508	    -16.75022724	      7.92074261	     -2.91317817	      0.00000000	      6.62271775	      2.91155828	      4.46166041	    -60.36121133	    -14.00795656	     -5.63069598	      0.00000000	    -24.96507729	     -0.60711431	    -11.16017259
      5.49000000	      0.51845063	      1.18118769	      4.36595314	     -2.33832924	      0.88097419	      0.26357681	     14.65353198	      0.45201109	      5.33238298	    -16.21662557	      8.65698503	     -2.77321624	      0.00000000	      8.92530099	      2.44032455	      4.48777123	    -63.81648112	    -15.74686090	     -6.15457969	      0.00000000	    -24.86568594	      0.18391631	    -10.78646159
      5.50000000	      0.58855942	      0.68612262	      4.71359380	     -2.32804325	      0.88198633	      0.26422767	     13.53290556	      0.99405842	      4.81220929	    -15.65266504	      9.30530373	     -2.56911626	      0.00000000	     11.07146014	      2.13586600	      4.45065916	    -66.86565438	    -16.66829363	     -6.34287524	      0.00000000	    -24.84151769	      0.77075336	    -10.36789660
      5.51000000	      0.71743996	      0.35711504	      4.95836238	     -2.31771319	      0.88323217	      0.26491104	     12.31434425	      1.39555205	      4.41199359	    -15.01576960	      9.84398141	     -2.39635279	      0.00000000	     13.00347297	      2.02482399	      4.34000861	    -69.45213100	    -16.78461652	     -6.16570533	      0.00000000	    -24.87391250	      1.12199568	     -9.90250683
      5.52000000	      0.86467747	      0.20176450	      5.06351306	     -2.30745897	      0.88460850	      0.26567422	     11.09236272	      1.64534891	      4.16008874	    -14.39675627	     10.33687512	     -2.19658669	      0.00000000	     14.76617192	      2.08926286	      4.08074580	    -71.58609607	    -16.06245540	     -5.61855896	      0.00000000	    -24.96254918	      1.22718335	     -9.39789621
      5.53000000	      1.00225168	      0.18206748	      5.04090344	     -2.29715746	      0.88605833	      0.26652856	      9.87540085	      1.77241278	      4.04307933	    -13.77106977	     10.81197134	     -1.95479595	      0.00000000	     16.38549896	      2.25997029	      3.65974323	    -73.26876488	    -14.66126891	     -4.72988355	      0.00000000	    -25.02663131	      1.14090642	     -8.91822911
      5.54000000	      1.06436920	      0.31773011	      4.97816751	     -2.28695690	      0.88747737	      0.26736060	      8.75344373	      1.73103478	      3.98371493	    -13.17134074	     11.22531736	     -1.75378037	      0.00000000	     17.95115364	      2.60222746	      3.19470692	    -74.51626240	    -12.67874656	     -3.47552514	      0.00000000	    -25.03832740	      0.85869459	     -8.49453979
      5.55000000	      1.11753011	      0.55990082	      4.80851917	     -2.27678542	      0.88886909	      0.26830943	      7.65706862	      1.59063638	      4.05516078	    -12.59653195	     11.67886937	     -1.54191824	      0.00000000	     19.39541939	      2.99553963	      2.58153938	    -75.33695188	    -10.42324724	     -2.04687492	      0.00000000	    -25.05695387	      0.42486539	     -8.11424142
      5.56000000	      1.11925503	      0.81161147	      4.59962558	     -2.26669460	      0.89012446	      0.26927328	      6.63614298	      1.43935293	      4.16469178	    -12.03051585	     12.02246706	     -1.40211688	      0.00000000	     20.79475952	      3.36449161	      1.92587000	    -75.78018558	     -8.01184920	     -0.53993072	      0.00000000	    -25.03567328	     -0.02158888	     -7.70870637
      5.57000000	      1.09927256	      1.14229604	      4.37117094	     -2.25667150	      0.89124835	      0.27024800	      5.65467503	      1.20592327	      4.34823567	    -11.49045031	     12.40863424	     -1.32566627	      0.00000000	     22.10874592	      3.78491253	      1.22715992	    -75.83438887	     -5.69380919	      0.87730724	      0.00000000	    -25.01813469	     -0.56021937	     -7.40715337
